<?xml version="1.0" encoding="UTF-8" standalone="no"?>
<svg
   xmlns:dc="http://purl.org/dc/elements/1.1/"
   xmlns:cc="http://creativecommons.org/ns#"
   xmlns:rdf="http://www.w3.org/1999/02/22-rdf-syntax-ns#"
   xmlns:svg="http://www.w3.org/2000/svg"
   xmlns="http://www.w3.org/2000/svg"
   xml:space="preserve"
   style="enable-background:new 0 0 500 500;"
   viewBox="0 0 500 500"
   height="500px"
   width="500px"
   y="0px"
   x="0px"
   id="Laag_1"
   version="1.1"><metadata
   id="metadata49"><rdf:RDF><cc:Work
       rdf:about=""><dc:format>image/svg+xml</dc:format><dc:type
         rdf:resource="http://purl.org/dc/dcmitype/StillImage" /><dc:title></dc:title></cc:Work></rdf:RDF></metadata><defs
   id="defs47" />
<polygon
   id="polygon2"
   points="419.446,69.5 399.951,431.048 98.201,408.97 79.553,94.532 "
   style="fill:#ffffff" />
<path
   id="path4"
   d="M365,354.299c0,5.91-4.791,10.701-10.701,10.701  H145.701c-5.91,0-10.701-4.791-10.701-10.701V145.701c0-5.91,4.791-10.701,10.701-10.701h208.598c5.91,0,10.701,4.791,10.701,10.701  V354.299z"
   style="fill:none;stroke:#9ea700;stroke-width:26;stroke-miterlimit:10;stroke-opacity:1" />
<rect
   id="rect6"
   height="298"
   width="131"
   style="fill:#ffffff"
   y="101"
   x="184" />
<rect
   id="rect8"
   height="118"
   width="278"
   style="fill:#ffffff"
   y="191"
   x="108" />
<g
   id="g12">
	<path
   id="path10"
   d="M264.303,332.662h-33.149V207.06h-42.452v-26.915h118.053v26.915h-42.451V332.662z"
   style="fill:#9ea700;fill-opacity:1" />
</g>
<g
   id="g14">
</g>
<g
   id="g16">
</g>
<g
   id="g18">
</g>
<g
   id="g20">
</g>
<g
   id="g22">
</g>
<g
   id="g24">
</g>
<g
   id="g26">
</g>
<g
   id="g28">
</g>
<g
   id="g30">
</g>
<g
   id="g32">
</g>
<g
   id="g34">
</g>
<g
   id="g36">
</g>
<g
   id="g38">
</g>
<g
   id="g40">
</g>
<g
   id="g42">
</g>
</svg>