<?xml version="1.0" encoding="iso-8859-1"?>
<!-- Generator: Adobe Illustrator 16.0.3, SVG Export Plug-In . SVG Version: 6.00 Build 0)  -->
<!DOCTYPE svg PUBLIC "-//W3C//DTD SVG 1.1//EN" "http://www.w3.org/Graphics/SVG/1.1/DTD/svg11.dtd">
<svg version="1.1" id="Laag_1" xmlns="http://www.w3.org/2000/svg" xmlns:xlink="http://www.w3.org/1999/xlink" x="0px" y="0px"
	 width="500px" height="500px" viewBox="0 0 500 500" style="enable-background:new 0 0 500 500;" xml:space="preserve">
<polygon style="fill:#9EA700;" points="419.446,69.5 399.951,431.048 98.201,408.97 79.553,94.532 "/>
<path style="fill:none;stroke:#FFFFFF;stroke-width:26;stroke-miterlimit:10;" d="M365,354.299c0,5.91-4.791,10.701-10.701,10.701
	H145.701c-5.91,0-10.701-4.791-10.701-10.701V145.701c0-5.91,4.791-10.701,10.701-10.701h208.598c5.91,0,10.701,4.791,10.701,10.701
	V354.299z"/>
<rect x="184" y="101" style="fill:#9EA700;" width="131" height="298"/>
<rect x="108" y="191" style="fill:#9EA700;" width="278" height="118"/>
<g>
	<path style="fill:#FFFFFF;" d="M264.303,332.662h-33.149V207.06h-42.452v-26.915h118.053v26.915h-42.451V332.662z"/>
</g>
<g>
</g>
<g>
</g>
<g>
</g>
<g>
</g>
<g>
</g>
<g>
</g>
<g>
</g>
<g>
</g>
<g>
</g>
<g>
</g>
<g>
</g>
<g>
</g>
<g>
</g>
<g>
</g>
<g>
</g>
</svg>
